<svg viewBox="0 0 308 125" width="420" height="125" preserveAspectRatio="none" fill="none" xmlns="http://www.w3.org/2000/svg">
  <path
    opacity=".5"
    fillRule="evenodd"
    clipRule="evenodd"
    d="M167.484 24.054c.119 0 .236-.031.335-.09a.544.544 0 00.221-.236.465.465 0 00.035-.304.517.517 0 00-.165-.27.634.634 0 00-.308-.144.683.683 0 00-.348.03.591.591 0 00-.27.194.483.483 0 00-.102.293c0 .14.064.273.177.372a.648.648 0 00.425.155zm13.541 0a.66.66 0 00.334-.09.547.547 0 00.222-.236.458.458 0 00.034-.304.509.509 0 00-.164-.27.634.634 0 00-.308-.144.683.683 0 00-.348.03.591.591 0 00-.27.194.483.483 0 00-.102.293c0 .14.064.273.177.372a.646.646 0 00.425.155zm13.875-.09a.663.663 0 01-.334.09.649.649 0 01-.426-.155.495.495 0 01-.176-.372c0-.104.035-.206.101-.293a.6.6 0 01.271-.194.68.68 0 01.347-.03.63.63 0 01.308.144.504.504 0 01.165.27.471.471 0 01-.034.304.553.553 0 01-.222.237zm13.207.09c.119 0 .235-.031.334-.09a.553.553 0 00.222-.236.471.471 0 00.034-.304.51.51 0 00-.165-.27.63.63 0 00-.308-.144.683.683 0 00-.348.03.591.591 0 00-.27.194.482.482 0 00-.101.293c0 .14.063.273.176.372a.649.649 0 00.426.155zm13.875-.09a.667.667 0 01-.76-.065.495.495 0 01-.176-.372c0-.104.035-.206.101-.293a.591.591 0 01.27-.194c.11-.04.231-.05.348-.03a.63.63 0 01.308.144.517.517 0 01.165.27.465.465 0 01-.035.304.544.544 0 01-.221.237zm13.206.09c.119 0 .236-.031.335-.09a.544.544 0 00.221-.236.458.458 0 00.034-.304.509.509 0 00-.164-.27.634.634 0 00-.308-.144.683.683 0 00-.348.03.591.591 0 00-.27.194.483.483 0 00-.102.293c0 .14.064.273.177.372a.648.648 0 00.425.155zm13.875-.09a.663.663 0 01-.334.09.649.649 0 01-.426-.155.477.477 0 01-.074-.665.591.591 0 01.27-.194.68.68 0 01.347-.03.63.63 0 01.308.144.504.504 0 01.165.27.471.471 0 01-.034.304.553.553 0 01-.222.237zm13.207.09c.119 0 .235-.031.334-.09a.553.553 0 00.222-.236.471.471 0 00.034-.304.504.504 0 00-.165-.27.63.63 0 00-.308-.144.683.683 0 00-.348.03.602.602 0 00-.27.194.482.482 0 00-.101.293c0 .14.063.273.176.372a.649.649 0 00.426.155zm13.875-.09a.663.663 0 01-.334.09.649.649 0 01-.426-.155.495.495 0 01-.176-.372c0-.104.035-.206.101-.293a.591.591 0 01.27-.194c.11-.04.231-.05.348-.03a.63.63 0 01.308.144.51.51 0 01.165.27.471.471 0 01-.034.304.553.553 0 01-.222.237zm13.206.09c.119 0 .236-.031.335-.09a.544.544 0 00.221-.236.465.465 0 00.035-.304.517.517 0 00-.165-.27.634.634 0 00-.308-.144.683.683 0 00-.348.03.591.591 0 00-.27.194.483.483 0 00-.102.293c0 .14.064.273.177.372a.648.648 0 00.425.155zm13.834-.271a.447.447 0 01-.293.106.447.447 0 01-.293-.106.343.343 0 01-.121-.256c0-.096.044-.188.121-.256a.447.447 0 01.293-.106c.11 0 .215.038.293.106.077.068.121.16.121.256a.343.343 0 01-.121.256zM4.995 36.367c.223 0 .441-.058.627-.166a1.03 1.03 0 00.416-.444.874.874 0 00.064-.57.956.956 0 00-.309-.506 1.185 1.185 0 00-.578-.27 1.278 1.278 0 00-.652.056 1.109 1.109 0 00-.506.364.903.903 0 00-.19.548.93.93 0 00.33.699c.212.185.499.29.798.29zm15.12-.987c0 .763-.707 1.382-1.58 1.382-.872 0-1.579-.619-1.579-1.382 0-.764.707-1.383 1.58-1.383.872 0 1.58.619 1.58 1.383zm11.962 1.382c.872 0 1.58-.619 1.58-1.382 0-.764-.708-1.383-1.58-1.383-.873 0-1.58.619-1.58 1.383 0 .763.707 1.382 1.58 1.382zm15.12-1.382c0 .763-.707 1.382-1.58 1.382-.872 0-1.58-.619-1.58-1.382 0-.764.708-1.383 1.58-1.383.873 0 1.58.619 1.58 1.383zm11.961 1.382c.873 0 1.58-.619 1.58-1.382 0-.764-.707-1.383-1.58-1.383-.872 0-1.58.619-1.58 1.383 0 .763.708 1.382 1.58 1.382zM18.536 24.054c.119 0 .235-.031.334-.09a.549.549 0 00.222-.236.466.466 0 00.034-.304.51.51 0 00-.165-.27.632.632 0 00-.308-.144.682.682 0 00-.348.03.592.592 0 00-.27.194.481.481 0 00-.101.293c0 .14.063.273.176.372a.648.648 0 00.426.155zm-13.541-.165c.11 0 .215-.038.293-.106a.341.341 0 00.12-.256.34.34 0 00-.12-.256.446.446 0 00-.293-.106.446.446 0 00-.293.106.34.34 0 00-.12.256c0 .096.043.188.12.256a.445.445 0 00.293.106zm27.416.076a.664.664 0 01-.334.089.648.648 0 01-.426-.155.496.496 0 01-.176-.372c0-.104.035-.206.101-.293a.592.592 0 01.27-.194c.11-.04.231-.05.348-.03.117.02.224.07.308.144a.51.51 0 01.165.27.467.467 0 01-.035.304.55.55 0 01-.221.237zm13.206.089c.12 0 .236-.031.335-.09a.549.549 0 00.221-.236.466.466 0 00.035-.304.51.51 0 00-.165-.27.632.632 0 00-.308-.144.682.682 0 00-.348.03.592.592 0 00-.27.194.481.481 0 00-.101.293c0 .14.063.273.176.372a.648.648 0 00.425.155zm13.875-.09a.664.664 0 01-.334.09.648.648 0 01-.425-.155.496.496 0 01-.177-.372c0-.104.036-.206.102-.293a.592.592 0 01.27-.194c.11-.04.23-.05.348-.03.116.02.223.07.308.144a.51.51 0 01.164.27.467.467 0 01-.034.304.55.55 0 01-.222.237zm13.207.09c.119 0 .235-.031.334-.09a.55.55 0 00.222-.236.467.467 0 00.034-.304.51.51 0 00-.165-.27.632.632 0 00-.308-.144.682.682 0 00-.347.03.592.592 0 00-.27.194.482.482 0 00-.102.293c0 .14.063.273.176.372a.648.648 0 00.426.155zm13.875-.09a.664.664 0 01-.334.09.648.648 0 01-.426-.155.496.496 0 01-.176-.372c0-.104.035-.206.101-.293a.592.592 0 01.27-.194c.11-.04.231-.05.348-.03.117.02.224.07.308.144a.51.51 0 01.165.27.466.466 0 01-.034.304.549.549 0 01-.222.237zm13.206.09c.12 0 .236-.031.335-.09a.544.544 0 00.221-.236.465.465 0 00.035-.304.517.517 0 00-.165-.27.63.63 0 00-.308-.144.682.682 0 00-.348.03.592.592 0 00-.27.194.47.47 0 00-.056.494c.03.064.075.122.13.171a.615.615 0 00.196.114c.073.027.151.04.23.04zm13.875-.09a.663.663 0 01-.564.05.604.604 0 01-.195-.115.525.525 0 01-.131-.17.474.474 0 01.056-.495.591.591 0 01.27-.194c.11-.04.231-.05.348-.03.116.02.223.07.308.144a.509.509 0 01.164.27.458.458 0 01-.034.304.547.547 0 01-.222.237zm13.207.09c.119 0 .235-.031.334-.09a.553.553 0 00.222-.236.465.465 0 00.034-.304.509.509 0 00-.164-.27.637.637 0 00-.309-.144.68.68 0 00-.347.03.591.591 0 00-.27.194.477.477 0 00.074.665.62.62 0 00.196.114c.073.027.151.04.23.04zm13.875-.09a.663.663 0 01-.565.05.615.615 0 01-.195-.115.522.522 0 01-.13-.17.46.46 0 01-.046-.202c0-.104.035-.206.101-.293a.591.591 0 01.27-.194c.11-.04.231-.05.348-.03a.63.63 0 01.308.144.51.51 0 01.165.27.471.471 0 01-.034.304.553.553 0 01-.222.237zm13.207.09c.119 0 .235-.031.334-.09a.553.553 0 00.222-.236.471.471 0 00.034-.304.51.51 0 00-.165-.27.63.63 0 00-.308-.144.683.683 0 00-.348.03.591.591 0 00-.27.194.482.482 0 00-.101.293c0 .069.015.137.046.201.03.064.074.122.13.171a.615.615 0 00.195.114c.073.027.152.04.231.04zM72.699 36.762c.872 0 1.58-.619 1.58-1.382 0-.764-.708-1.383-1.58-1.383-.873 0-1.58.619-1.58 1.383 0 .763.707 1.382 1.58 1.382zm13.54 0c.873 0 1.58-.619 1.58-1.382 0-.764-.707-1.383-1.58-1.383-.872 0-1.579.619-1.579 1.383 0 .763.707 1.382 1.58 1.382zm15.121-1.382c0 .763-.707 1.382-1.58 1.382-.872 0-1.58-.619-1.58-1.382 0-.764.708-1.383 1.58-1.383.873 0 1.58.619 1.58 1.383zm11.961 1.382c.873 0 1.58-.619 1.58-1.382 0-.764-.707-1.383-1.58-1.383-.872 0-1.58.619-1.58 1.383 0 .763.708 1.382 1.58 1.382zm15.121-1.382c0 .763-.707 1.382-1.58 1.382-.872 0-1.58-.619-1.58-1.382 0-.764.708-1.383 1.58-1.383.873 0 1.58.619 1.58 1.383zm11.961 1.382c.872 0 1.58-.619 1.58-1.382 0-.764-.708-1.383-1.58-1.383-.873 0-1.58.619-1.58 1.383 0 .763.707 1.382 1.58 1.382zm15.12-1.382c0 .763-.707 1.382-1.579 1.382-.873 0-1.58-.619-1.58-1.382 0-.764.707-1.383 1.58-1.383.872 0 1.579.619 1.579 1.383zm11.961 1.382c.873 0 1.58-.619 1.58-1.382 0-.764-.707-1.383-1.58-1.383-.872 0-1.579.619-1.579 1.383 0 .763.707 1.382 1.579 1.382zm15.121-1.382c0 .763-.707 1.382-1.58 1.382-.872 0-1.58-.619-1.58-1.382 0-.764.708-1.383 1.58-1.383.873 0 1.58.619 1.58 1.383zm11.961 1.382c.872 0 1.58-.619 1.58-1.382 0-.764-.708-1.383-1.58-1.383-.872 0-1.58.619-1.58 1.383 0 .763.708 1.382 1.58 1.382zm15.12-1.382c0 .763-.707 1.382-1.579 1.382-.873 0-1.58-.619-1.58-1.382 0-.764.707-1.383 1.58-1.383.872 0 1.579.619 1.579 1.383zm11.961 1.382c.873 0 1.58-.619 1.58-1.382 0-.764-.707-1.383-1.58-1.383-.872 0-1.579.619-1.579 1.383 0 .763.707 1.382 1.579 1.382zm15.121-1.382c0 .763-.707 1.382-1.58 1.382-.872 0-1.579-.619-1.579-1.382 0-.764.707-1.383 1.579-1.383.873 0 1.58.619 1.58 1.383zm11.961 1.382c.872 0 1.58-.619 1.58-1.382 0-.764-.708-1.383-1.58-1.383-.872 0-1.58.619-1.58 1.383 0 .763.708 1.382 1.58 1.382zm15.121-1.382c0 .763-.708 1.382-1.58 1.382-.873 0-1.58-.619-1.58-1.382 0-.764.707-1.383 1.58-1.383.872 0 1.58.619 1.58 1.383zm11.961 1.382c.872 0 1.579-.619 1.579-1.382 0-.764-.707-1.383-1.579-1.383-.873 0-1.58.619-1.58 1.383 0 .763.707 1.382 1.58 1.382zm15.12-1.382c0 .763-.707 1.382-1.579 1.382-.873 0-1.58-.619-1.58-1.382 0-.764.707-1.383 1.58-1.383.872 0 1.579.619 1.579 1.383zm11.961.987c.223 0 .442-.058.627-.166.186-.109.33-.263.416-.444a.874.874 0 00.064-.57.958.958 0 00-.309-.506 1.186 1.186 0 00-.578-.27 1.275 1.275 0 00-.651.056 1.106 1.106 0 00-.507.364.902.902 0 00-.19.548c0 .263.119.514.33.699.212.185.499.29.798.29zM4.995 48.773c.35 0 .692-.09.983-.26.29-.171.517-.413.651-.696a1.37 1.37 0 00.1-.895 1.5 1.5 0 00-.487-.793 1.86 1.86 0 00-.907-.422 2.002 2.002 0 00-1.022.091 1.736 1.736 0 00-.791.573 1.413 1.413 0 00-.295.861c0 .203.046.404.135.592.089.187.22.357.383.5.165.144.36.257.574.334.215.077.444.116.676.115zm14.942.286a2.783 2.783 0 01-1.401.373 2.82 2.82 0 01-.965-.164 2.556 2.556 0 01-.819-.476 2.199 2.199 0 01-.546-.715 1.957 1.957 0 01-.19-.845 2.015 2.015 0 01.42-1.227c.277-.364.67-.647 1.13-.815.46-.168.968-.213 1.457-.129.49.085.94.294 1.292.603.353.308.594.7.692 1.129.098.428.048.872-.142 1.275-.19.404-.514.749-.928.992zm12.14.373c.498 0 .986-.13 1.4-.373.415-.242.738-.587.929-.99.19-.404.24-.848.142-1.276a2.137 2.137 0 00-.692-1.13 2.65 2.65 0 00-1.293-.602 2.855 2.855 0 00-1.456.129c-.46.168-.854.451-1.13.815-.276.364-.422.79-.42 1.227-.002.29.063.577.19.845.126.267.311.51.546.715.234.204.512.366.819.476.306.11.634.165.965.164zm14.941-.373a2.783 2.783 0 01-1.4.373 2.818 2.818 0 01-.966-.164 2.555 2.555 0 01-.818-.476 2.198 2.198 0 01-.547-.715 1.958 1.958 0 01-.19-.845 2.015 2.015 0 01.421-1.227 2.476 2.476 0 011.13-.815c.46-.168.967-.213 1.456-.129.49.085.94.294 1.293.603.353.308.594.7.692 1.129.097.428.048.872-.143 1.275-.19.404-.513.749-.928.992zm12.14.373c.499 0 .986-.13 1.401-.373.415-.242.738-.587.928-.99.19-.404.24-.848.142-1.276a2.137 2.137 0 00-.692-1.13 2.65 2.65 0 00-1.292-.602 2.855 2.855 0 00-1.457.129c-.46.168-.853.451-1.129.815-.276.364-.422.79-.421 1.227-.001.29.064.577.19.845.126.267.312.51.546.715.235.204.513.366.82.476.305.11.633.165.964.164zm14.942-.373a2.783 2.783 0 01-1.401.373 2.818 2.818 0 01-.965-.164 2.555 2.555 0 01-.819-.476 2.198 2.198 0 01-.546-.715 1.958 1.958 0 01-.19-.845 2.014 2.014 0 01.421-1.227 2.476 2.476 0 011.13-.815c.46-.168.967-.213 1.456-.129.49.085.94.294 1.292.603.354.308.594.7.692 1.129.098.428.049.872-.142 1.275-.19.404-.514.749-.928.992zm12.14.373c.499 0 .986-.13 1.4-.373.415-.242.738-.587.929-.99.19-.404.24-.848.142-1.276a2.137 2.137 0 00-.692-1.13 2.65 2.65 0 00-1.292-.602 2.855 2.855 0 00-1.457.129c-.46.168-.853.451-1.13.815-.275.364-.422.79-.42 1.227-.001.29.063.577.19.845.126.267.312.51.546.715.234.204.513.366.819.476.306.11.634.165.965.164zm14.941-.373a2.78 2.78 0 01-1.4.373 2.82 2.82 0 01-.966-.164 2.556 2.556 0 01-.818-.476 2.199 2.199 0 01-.547-.715 1.957 1.957 0 01-.19-.845 2.015 2.015 0 01.421-1.227c.276-.364.67-.647 1.13-.815.46-.168.967-.213 1.456-.129.49.085.94.294 1.293.603.353.308.594.7.692 1.129.097.428.048.872-.143 1.275-.19.404-.513.749-.928.992zm12.14.373c.499 0 .987-.13 1.401-.373.415-.242.738-.587.928-.99.191-.404.24-.848.142-1.276a2.132 2.132 0 00-.691-1.13 2.654 2.654 0 00-1.293-.602 2.853 2.853 0 00-1.456.129 2.475 2.475 0 00-1.13.815c-.276.364-.422.79-.421 1.227-.001.29.064.577.19.845a2.2 2.2 0 00.547.715c.234.204.512.366.818.476.306.11.634.165.965.164zm14.942-.373a2.783 2.783 0 01-1.401.373 2.818 2.818 0 01-.965-.164 2.566 2.566 0 01-.819-.476 2.196 2.196 0 01-.546-.715 1.963 1.963 0 01-.19-.845 2.011 2.011 0 01.421-1.227 2.477 2.477 0 011.129-.815 2.857 2.857 0 011.457-.129 2.65 2.65 0 011.292.603c.353.308.594.7.692 1.129.098.428.048.872-.142 1.275a2.304 2.304 0 01-.928.992zm12.14.373c.499 0 .986-.13 1.401-.373.414-.242.737-.587.928-.99.19-.404.24-.848.142-1.276a2.14 2.14 0 00-.692-1.13 2.65 2.65 0 00-1.292-.602 2.857 2.857 0 00-1.457.129c-.46.168-.853.451-1.129.815-.276.364-.423.79-.421 1.227-.001.29.063.577.19.845.126.267.312.51.546.715.234.204.513.366.819.476.306.11.634.165.965.164zm14.942-.373a2.786 2.786 0 01-1.401.373 2.818 2.818 0 01-.965-.164 2.545 2.545 0 01-.819-.476 2.213 2.213 0 01-.547-.715 1.962 1.962 0 01-.189-.845 2.011 2.011 0 01.421-1.227 2.477 2.477 0 011.129-.815c.46-.168.967-.213 1.457-.129a2.65 2.65 0 011.292.603c.353.308.594.7.692 1.129.098.428.048.872-.142 1.275a2.304 2.304 0 01-.928.992zm12.139.373c.499 0 .987-.13 1.401-.373.415-.242.738-.587.928-.99.191-.404.24-.848.143-1.276a2.14 2.14 0 00-.692-1.13 2.65 2.65 0 00-1.293-.602 2.853 2.853 0 00-1.456.129 2.48 2.48 0 00-1.13.815c-.276.364-.422.79-.421 1.227-.001.29.064.577.19.845a2.2 2.2 0 00.547.715c.234.204.512.366.818.476.307.11.635.165.965.164zm14.942-.373a2.783 2.783 0 01-1.401.373 2.818 2.818 0 01-.965-.164 2.566 2.566 0 01-.819-.476 2.196 2.196 0 01-.546-.715 1.963 1.963 0 01-.19-.845 2.018 2.018 0 01.421-1.227 2.475 2.475 0 011.13-.815c.46-.168.967-.213 1.456-.129.49.085.939.294 1.292.603.354.308.594.7.692 1.129.098.428.049.872-.142 1.275-.19.404-.513.749-.928.992zm12.14.373c.499 0 .986-.13 1.401-.373.414-.242.737-.587.928-.99.19-.404.24-.848.142-1.276a2.14 2.14 0 00-.692-1.13 2.65 2.65 0 00-1.292-.602 2.857 2.857 0 00-1.457.129c-.46.168-.853.451-1.129.815-.276.364-.423.79-.421 1.227-.001.29.063.577.19.845.126.267.312.51.546.715.234.204.513.366.819.476.306.11.634.165.965.164zm14.942-.373a2.786 2.786 0 01-1.401.373 2.818 2.818 0 01-.965-.164 2.545 2.545 0 01-.819-.476 2.213 2.213 0 01-.547-.715 1.962 1.962 0 01-.189-.845 2.011 2.011 0 01.421-1.227 2.477 2.477 0 011.129-.815c.46-.168.967-.213 1.457-.129a2.65 2.65 0 011.292.603c.353.308.594.7.692 1.129.098.428.048.872-.142 1.275a2.304 2.304 0 01-.928.992zm12.14.373c.498 0 .986-.13 1.4-.373a2.3 2.3 0 00.929-.99 1.96 1.96 0 00.142-1.276 2.14 2.14 0 00-.692-1.13 2.65 2.65 0 00-1.292-.602 2.855 2.855 0 00-1.457.129 2.48 2.48 0 00-1.13.815c-.276.364-.422.79-.421 1.227-.001.29.064.577.19.845a2.2 2.2 0 00.547.715c.234.204.512.366.819.476.306.11.634.165.965.164zm13.54 0c.499 0 .987-.13 1.401-.373.415-.242.738-.587.928-.99.191-.404.24-.848.142-1.276a2.132 2.132 0 00-.691-1.13 2.654 2.654 0 00-1.293-.602 2.853 2.853 0 00-1.456.129 2.475 2.475 0 00-1.13.815c-.276.364-.422.79-.421 1.227-.001.29.064.577.19.845.126.267.312.51.546.715.235.204.513.366.819.476.306.11.634.165.965.164zm13.541 0c.499 0 .986-.13 1.401-.373.414-.242.737-.587.928-.99.19-.404.24-.848.142-1.276a2.14 2.14 0 00-.692-1.13 2.65 2.65 0 00-1.292-.602 2.857 2.857 0 00-1.457.129c-.46.168-.853.451-1.129.815-.276.364-.423.79-.421 1.227-.001.29.063.577.19.845.126.267.312.51.546.715.235.204.513.366.819.476.306.11.634.165.965.164zm14.942-.373a2.783 2.783 0 01-1.401.373 2.818 2.818 0 01-.965-.164 2.566 2.566 0 01-.819-.476 2.196 2.196 0 01-.546-.715 1.948 1.948 0 01-.19-.845 2.011 2.011 0 01.421-1.227 2.477 2.477 0 011.129-.815 2.857 2.857 0 011.457-.129 2.65 2.65 0 011.292.603c.353.308.594.7.692 1.129.098.428.048.872-.142 1.275a2.304 2.304 0 01-.928.992zm12.14.373c.498 0 .986-.13 1.401-.373.414-.242.737-.587.928-.99.19-.404.24-.848.142-1.276a2.14 2.14 0 00-.692-1.13 2.65 2.65 0 00-1.292-.602 2.855 2.855 0 00-1.457.129c-.46.168-.853.451-1.129.815-.276.364-.423.79-.421 1.227-.001.29.063.577.19.845.126.267.312.51.546.715.234.204.513.366.819.476.306.11.634.165.965.164zm14.941-.373a2.78 2.78 0 01-1.401.373 2.826 2.826 0 01-.965-.164 2.55 2.55 0 01-.818-.476 2.2 2.2 0 01-.547-.715 1.963 1.963 0 01-.19-.845 2.018 2.018 0 01.421-1.227 2.475 2.475 0 011.13-.815c.46-.168.967-.213 1.456-.129.49.085.94.294 1.293.603.353.308.594.7.692 1.129.097.428.048.872-.143 1.275-.19.404-.513.749-.928.992zm12.14-.253c.357 0 .707-.093 1.004-.267a1.65 1.65 0 00.665-.71c.136-.29.172-.608.101-.914a1.53 1.53 0 00-.496-.81 1.899 1.899 0 00-.926-.43 2.047 2.047 0 00-1.044.092c-.33.12-.611.324-.809.585-.197.261-.302.567-.3.88 0 .207.046.412.137.604.091.191.224.365.392.511.168.146.367.262.586.34.219.08.453.12.69.119zM7.395 59.085c0 1.16-1.074 2.1-2.4 2.1-1.325 0-2.4-.94-2.4-2.1 0-1.16 1.075-2.1 2.4-2.1s2.4.94 2.4 2.1zm11.14 3.022c1.908 0 3.454-1.353 3.454-3.022 0-1.67-1.546-3.023-3.453-3.023-1.907 0-3.453 1.354-3.453 3.023 0 1.67 1.546 3.022 3.453 3.022zm16.994-3.022c0 1.67-1.546 3.022-3.453 3.022-1.907 0-3.452-1.353-3.452-3.022 0-1.67 1.546-3.023 3.452-3.023 1.907 0 3.453 1.354 3.453 3.023zm10.088 3.022c1.907 0 3.453-1.353 3.453-3.022 0-1.67-1.546-3.023-3.453-3.023-1.907 0-3.453 1.354-3.453 3.023 0 1.67 1.546 3.022 3.453 3.022zm16.994-3.022c0 1.67-1.546 3.022-3.453 3.022-1.907 0-3.453-1.353-3.453-3.022 0-1.67 1.546-3.023 3.453-3.023 1.907 0 3.453 1.354 3.453 3.023zm10.088 3.022c1.907 0 3.453-1.353 3.453-3.022 0-1.67-1.546-3.023-3.453-3.023-1.907 0-3.453 1.354-3.453 3.023 0 1.67 1.546 3.022 3.453 3.022zm16.993-3.022c0 1.67-1.545 3.022-3.452 3.022s-3.453-1.353-3.453-3.022c0-1.67 1.545-3.023 3.453-3.023 1.907 0 3.452 1.354 3.452 3.023zm10.088 3.022c1.907 0 3.453-1.353 3.453-3.022 0-1.67-1.546-3.023-3.453-3.023-1.907 0-3.453 1.354-3.453 3.023 0 1.67 1.546 3.022 3.453 3.022zm16.994-3.022c0 1.67-1.546 3.022-3.453 3.022-1.907 0-3.453-1.353-3.453-3.022 0-1.67 1.546-3.023 3.453-3.023 1.907 0 3.453 1.354 3.453 3.023zm10.088 3.022c1.907 0 3.453-1.353 3.453-3.022 0-1.67-1.546-3.023-3.453-3.023-1.907 0-3.453 1.354-3.453 3.023 0 1.67 1.546 3.022 3.453 3.022zm16.994-3.022c0 1.67-1.546 3.022-3.453 3.022-1.907 0-3.453-1.353-3.453-3.022 0-1.67 1.546-3.023 3.453-3.023 1.907 0 3.453 1.354 3.453 3.023zm10.088 3.022c1.907 0 3.452-1.353 3.452-3.022 0-1.67-1.545-3.023-3.452-3.023s-3.453 1.354-3.453 3.023c0 1.67 1.546 3.022 3.453 3.022zm16.993-3.022c0 1.67-1.546 3.022-3.453 3.022-1.907 0-3.453-1.353-3.453-3.022 0-1.67 1.546-3.023 3.453-3.023 1.907 0 3.453 1.354 3.453 3.023zm10.088 3.022c1.907 0 3.453-1.353 3.453-3.022 0-1.67-1.546-3.023-3.453-3.023-1.907 0-3.453 1.354-3.453 3.023 0 1.67 1.546 3.022 3.453 3.022zm13.541 0c1.907 0 3.453-1.353 3.453-3.022 0-1.67-1.546-3.023-3.453-3.023-1.907 0-3.453 1.354-3.453 3.023 0 1.67 1.546 3.022 3.453 3.022zm16.993-3.022c0 1.67-1.545 3.022-3.452 3.022s-3.453-1.353-3.453-3.022c0-1.67 1.546-3.023 3.453-3.023 1.907 0 3.452 1.354 3.452 3.023zm10.088 3.022c1.907 0 3.453-1.353 3.453-3.022 0-1.67-1.546-3.023-3.453-3.023-1.907 0-3.453 1.354-3.453 3.023 0 1.67 1.546 3.022 3.453 3.022zm16.994-3.022c0 1.67-1.546 3.022-3.453 3.022-1.907 0-3.453-1.353-3.453-3.022 0-1.67 1.546-3.023 3.453-3.023 1.907 0 3.453 1.354 3.453 3.023zm10.088 3.022c1.907 0 3.453-1.353 3.453-3.022 0-1.67-1.546-3.023-3.453-3.023-1.907 0-3.453 1.354-3.453 3.023 0 1.67 1.546 3.022 3.453 3.022zm16.994-3.022c0 1.67-1.546 3.022-3.453 3.022-1.907 0-3.453-1.353-3.453-3.022 0-1.67 1.546-3.023 3.453-3.023 1.907 0 3.453 1.354 3.453 3.023zm10.088 3.022c1.907 0 3.452-1.353 3.452-3.022 0-1.67-1.545-3.023-3.452-3.023s-3.453 1.354-3.453 3.023c0 1.67 1.546 3.022 3.453 3.022zm16.993-3.022c0 1.67-1.546 3.022-3.453 3.022-1.907 0-3.453-1.353-3.453-3.022 0-1.67 1.546-3.023 3.453-3.023 1.907 0 3.453 1.354 3.453 3.023zm10.088 2.166a2.74 2.74 0 001.38-.366c.409-.24.727-.58.914-.977.188-.397.237-.834.14-1.256a2.102 2.102 0 00-.681-1.113 2.611 2.611 0 00-1.273-.593 2.812 2.812 0 00-1.435.127 2.438 2.438 0 00-1.113.803 1.986 1.986 0 00-.414 1.209c0 .285.064.567.189.83.125.264.308.503.538.704.231.202.505.36.806.47.301.108.623.163.949.162zM8.034 70.938c0 1.469-1.36 2.66-3.039 2.66-1.678 0-3.039-1.191-3.039-2.66 0-1.47 1.36-2.66 3.04-2.66 1.678 0 3.038 1.19 3.038 2.66zm10.502 3.812c2.405 0 4.356-1.707 4.356-3.813 0-2.105-1.95-3.812-4.356-3.812-2.406 0-4.356 1.707-4.356 3.812 0 2.106 1.95 3.813 4.356 3.813zm17.896-3.813c0 2.106-1.95 3.813-4.355 3.813-2.406 0-4.356-1.707-4.356-3.813 0-2.105 1.95-3.812 4.356-3.812 2.405 0 4.355 1.707 4.355 3.812zm9.185 3.813c2.406 0 4.356-1.707 4.356-3.813 0-2.105-1.95-3.812-4.356-3.812-2.405 0-4.355 1.707-4.355 3.812 0 2.106 1.95 3.813 4.355 3.813zm17.897-3.813c0 2.106-1.95 3.813-4.356 3.813-2.405 0-4.355-1.707-4.355-3.813 0-2.105 1.95-3.812 4.355-3.812 2.406 0 4.356 1.707 4.356 3.812zm9.185 3.813c2.406 0 4.356-1.707 4.356-3.813 0-2.105-1.95-3.812-4.356-3.812-2.406 0-4.356 1.707-4.356 3.812 0 2.106 1.95 3.813 4.356 3.813zm17.896-3.813c0 2.106-1.95 3.813-4.355 3.813-2.406 0-4.356-1.707-4.356-3.813 0-2.105 1.95-3.812 4.356-3.812 2.405 0 4.355 1.707 4.355 3.812zm9.186 3.813c2.405 0 4.355-1.707 4.355-3.813 0-2.105-1.95-3.812-4.355-3.812-2.406 0-4.356 1.707-4.356 3.812 0 2.106 1.95 3.813 4.356 3.813zm17.896-3.813c0 2.106-1.95 3.813-4.356 3.813-2.405 0-4.355-1.707-4.355-3.813 0-2.105 1.95-3.812 4.355-3.812 2.406 0 4.356 1.707 4.356 3.812zm9.185 3.813c2.406 0 4.356-1.707 4.356-3.813 0-2.105-1.95-3.812-4.356-3.812-2.406 0-4.356 1.707-4.356 3.812 0 2.106 1.95 3.813 4.356 3.813zm13.541 0c2.405 0 4.356-1.707 4.356-3.813 0-2.105-1.951-3.812-4.356-3.812-2.406 0-4.356 1.707-4.356 3.812 0 2.106 1.95 3.813 4.356 3.813zm13.541 0c2.405 0 4.355-1.707 4.355-3.813 0-2.105-1.95-3.812-4.355-3.812-2.406 0-4.356 1.707-4.356 3.812 0 2.106 1.95 3.813 4.356 3.813zm17.896-3.813c0 2.106-1.95 3.813-4.356 3.813-2.405 0-4.355-1.707-4.355-3.813 0-2.105 1.95-3.812 4.355-3.812 2.406 0 4.356 1.707 4.356 3.812zm9.185 3.813c2.406 0 4.356-1.707 4.356-3.813 0-2.105-1.95-3.812-4.356-3.812-2.405 0-4.355 1.707-4.355 3.812 0 2.106 1.95 3.813 4.355 3.813zm17.897-3.813c0 2.106-1.951 3.813-4.356 3.813-2.406 0-4.356-1.707-4.356-3.813 0-2.105 1.95-3.812 4.356-3.812 2.405 0 4.356 1.707 4.356 3.812zm9.185 3.813c2.405 0 4.355-1.707 4.355-3.813 0-2.105-1.95-3.812-4.355-3.812-2.406 0-4.356 1.707-4.356 3.812 0 2.106 1.95 3.813 4.356 3.813zm17.896-3.813c0 2.106-1.95 3.813-4.355 3.813-2.406 0-4.356-1.707-4.356-3.813 0-2.105 1.95-3.812 4.356-3.812 2.405 0 4.355 1.707 4.355 3.812zm9.185 3.813c2.406 0 4.356-1.707 4.356-3.813 0-2.105-1.95-3.812-4.356-3.812-2.405 0-4.355 1.707-4.355 3.812 0 2.106 1.95 3.813 4.355 3.813zm17.897-3.813c0 2.106-1.95 3.813-4.356 3.813-2.405 0-4.355-1.707-4.355-3.813 0-2.105 1.95-3.812 4.355-3.812 2.406 0 4.356 1.707 4.356 3.812zm9.185 3.813c2.405 0 4.355-1.707 4.355-3.813 0-2.105-1.95-3.812-4.355-3.812-2.406 0-4.356 1.707-4.356 3.812 0 2.106 1.95 3.813 4.356 3.813zm17.896-3.813c0 2.106-1.95 3.813-4.355 3.813-2.406 0-4.356-1.707-4.356-3.813 0-2.105 1.95-3.812 4.356-3.812 2.405 0 4.355 1.707 4.355 3.812zm9.186 3.813c2.405 0 4.355-1.707 4.355-3.813 0-2.105-1.95-3.812-4.355-3.812-2.406 0-4.356 1.707-4.356 3.812 0 2.106 1.95 3.813 4.356 3.813zm16.655-3.812c0 1.505-1.395 2.726-3.115 2.726-1.72 0-3.114-1.22-3.114-2.726s1.394-2.726 3.114-2.726 3.115 1.22 3.115 2.726zM4.995 86.01c2.032 0 3.679-1.441 3.679-3.22 0-1.778-1.647-3.22-3.679-3.22s-3.678 1.442-3.678 3.22c0 1.779 1.646 3.22 3.678 3.22zm18.837-3.22c0 2.56-2.371 4.636-5.296 4.636-2.925 0-5.296-2.075-5.296-4.636 0-2.56 2.371-4.635 5.296-4.635 2.925 0 5.296 2.075 5.296 4.635zm8.245 4.636c2.925 0 5.296-2.075 5.296-4.636 0-2.56-2.371-4.635-5.296-4.635-2.925 0-5.296 2.075-5.296 4.635 0 2.56 2.37 4.636 5.296 4.636zm18.836-4.636c0 2.56-2.37 4.636-5.295 4.636s-5.297-2.075-5.297-4.636c0-2.56 2.372-4.635 5.297-4.635 2.924 0 5.295 2.075 5.295 4.635zm8.245 4.636c2.925 0 5.296-2.075 5.296-4.636 0-2.56-2.37-4.635-5.296-4.635-2.925 0-5.296 2.075-5.296 4.635 0 2.56 2.371 4.636 5.296 4.636zm18.837-4.636c0 2.56-2.371 4.636-5.296 4.636-2.925 0-5.296-2.075-5.296-4.636 0-2.56 2.371-4.635 5.296-4.635 2.925 0 5.296 2.075 5.296 4.635zm8.245 4.636c2.925 0 5.296-2.075 5.296-4.636 0-2.56-2.371-4.635-5.296-4.635-2.925 0-5.296 2.075-5.296 4.635 0 2.56 2.37 4.636 5.296 4.636zm18.836-4.636c0 2.56-2.371 4.636-5.295 4.636-2.925 0-5.296-2.075-5.296-4.636 0-2.56 2.37-4.635 5.296-4.635 2.924 0 5.295 2.075 5.295 4.635zm8.245 4.636c2.925 0 5.296-2.075 5.296-4.636 0-2.56-2.371-4.635-5.296-4.635-2.924 0-5.296 2.075-5.296 4.635 0 2.56 2.372 4.636 5.296 4.636zm13.541 0c2.925 0 5.296-2.075 5.296-4.636 0-2.56-2.371-4.635-5.296-4.635-2.925 0-5.296 2.075-5.296 4.635 0 2.56 2.371 4.636 5.296 4.636zm18.837-4.636c0 2.56-2.371 4.636-5.296 4.636-2.925 0-5.296-2.075-5.296-4.636 0-2.56 2.371-4.635 5.296-4.635 2.925 0 5.296 2.075 5.296 4.635zm8.245 4.636c2.924 0 5.295-2.075 5.295-4.636 0-2.56-2.371-4.635-5.295-4.635-2.925 0-5.296 2.075-5.296 4.635 0 2.56 2.371 4.636 5.296 4.636zm18.836-4.636c0 2.56-2.371 4.636-5.296 4.636-2.924 0-5.296-2.075-5.296-4.636 0-2.56 2.372-4.635 5.296-4.635 2.925 0 5.296 2.075 5.296 4.635zm8.245 4.636c2.925 0 5.296-2.075 5.296-4.636 0-2.56-2.371-4.635-5.296-4.635-2.925 0-5.296 2.075-5.296 4.635 0 2.56 2.371 4.636 5.296 4.636zm18.837-4.636c0 2.56-2.371 4.636-5.296 4.636-2.925 0-5.296-2.075-5.296-4.636 0-2.56 2.371-4.635 5.296-4.635 2.925 0 5.296 2.075 5.296 4.635zm8.245 4.636c2.925 0 5.296-2.075 5.296-4.636 0-2.56-2.371-4.635-5.296-4.635-2.925 0-5.296 2.075-5.296 4.635 0 2.56 2.371 4.636 5.296 4.636zm18.836-4.636c0 2.56-2.371 4.636-5.296 4.636-2.924 0-5.295-2.075-5.295-4.636 0-2.56 2.371-4.635 5.295-4.635 2.925 0 5.296 2.075 5.296 4.635zm8.245 4.636c2.925 0 5.296-2.075 5.296-4.636 0-2.56-2.371-4.635-5.296-4.635-2.925 0-5.296 2.075-5.296 4.635 0 2.56 2.371 4.636 5.296 4.636zm18.837-4.636c0 2.56-2.371 4.636-5.296 4.636-2.925 0-5.296-2.075-5.296-4.636 0-2.56 2.371-4.635 5.296-4.635 2.925 0 5.296 2.075 5.296 4.635zm8.245 4.636c2.925 0 5.296-2.075 5.296-4.636 0-2.56-2.371-4.635-5.296-4.635-2.925 0-5.296 2.075-5.296 4.635 0 2.56 2.371 4.636 5.296 4.636zm18.836-4.636c0 2.56-2.371 4.636-5.295 4.636-2.925 0-5.296-2.075-5.296-4.636 0-2.56 2.371-4.635 5.296-4.635 2.924 0 5.295 2.075 5.295 4.635zm8.245 4.636c2.925 0 5.296-2.075 5.296-4.636 0-2.56-2.371-4.635-5.296-4.635-2.924 0-5.296 2.075-5.296 4.635 0 2.56 2.372 4.636 5.296 4.636zm17.333-4.636c0 1.833-1.698 3.319-3.792 3.319s-3.791-1.486-3.791-3.319 1.697-3.319 3.791-3.319 3.792 1.486 3.792 3.32zM4.995 98.456c2.406 0 4.356-1.707 4.356-3.813S7.4 90.83 4.995 90.83C2.59 90.83.64 92.537.64 94.643s1.95 3.813 4.356 3.813zm19.74-3.813c0 2.997-2.776 5.426-6.2 5.426-3.423 0-6.198-2.43-6.198-5.426 0-2.997 2.775-5.426 6.199-5.426 3.423 0 6.198 2.43 6.198 5.426zm7.342 5.426c3.423 0 6.198-2.43 6.198-5.426 0-2.997-2.775-5.426-6.198-5.426-3.424 0-6.2 2.43-6.2 5.426 0 2.997 2.776 5.426 6.2 5.426zm19.74-5.426c0 2.997-2.776 5.426-6.2 5.426-3.423 0-6.198-2.43-6.198-5.426 0-2.997 2.775-5.426 6.198-5.426 3.424 0 6.2 2.43 6.2 5.426zm7.341 5.426c3.424 0 6.199-2.43 6.199-5.426 0-2.997-2.775-5.426-6.199-5.426-3.423 0-6.199 2.43-6.199 5.426 0 2.997 2.776 5.426 6.2 5.426zm19.74-5.426c0 2.997-2.776 5.426-6.2 5.426-3.423 0-6.198-2.43-6.198-5.426 0-2.997 2.775-5.426 6.199-5.426 3.423 0 6.198 2.43 6.198 5.426zm7.342 5.426c3.423 0 6.198-2.43 6.198-5.426 0-2.997-2.775-5.426-6.198-5.426-3.424 0-6.2 2.43-6.2 5.426 0 2.997 2.776 5.426 6.2 5.426zm19.739-5.426c0 2.997-2.775 5.426-6.199 5.426-3.423 0-6.198-2.43-6.198-5.426 0-2.997 2.775-5.426 6.198-5.426 3.424 0 6.199 2.43 6.199 5.426zm13.541 0c0 2.997-2.775 5.426-6.199 5.426-3.423 0-6.198-2.43-6.198-5.426 0-2.997 2.775-5.426 6.198-5.426 3.424 0 6.199 2.43 6.199 5.426zm7.342 5.426c3.423 0 6.199-2.43 6.199-5.426 0-2.997-2.776-5.426-6.199-5.426s-6.199 2.43-6.199 5.426c0 2.997 2.776 5.426 6.199 5.426zm19.739-5.426c0 2.997-2.775 5.426-6.198 5.426-3.424 0-6.199-2.43-6.199-5.426 0-2.997 2.775-5.426 6.199-5.426 3.423 0 6.198 2.43 6.198 5.426zm7.343 5.426c3.423 0 6.198-2.43 6.198-5.426 0-2.997-2.775-5.426-6.198-5.426-3.424 0-6.199 2.43-6.199 5.426 0 2.997 2.775 5.426 6.199 5.426zm19.739-5.426c0 2.997-2.775 5.426-6.199 5.426-3.423 0-6.198-2.43-6.198-5.426 0-2.997 2.775-5.426 6.198-5.426 3.424 0 6.199 2.43 6.199 5.426zm7.342 5.426c3.424 0 6.199-2.43 6.199-5.426 0-2.997-2.775-5.426-6.199-5.426-3.423 0-6.199 2.43-6.199 5.426 0 2.997 2.776 5.426 6.199 5.426zm19.74-5.426c0 2.997-2.776 5.426-6.199 5.426s-6.199-2.43-6.199-5.426c0-2.997 2.776-5.426 6.199-5.426s6.199 2.43 6.199 5.426zm7.342 5.426c3.423 0 6.198-2.43 6.198-5.426 0-2.997-2.775-5.426-6.198-5.426-3.424 0-6.199 2.43-6.199 5.426 0 2.997 2.775 5.426 6.199 5.426zm19.739-5.426c0 2.997-2.775 5.426-6.199 5.426-3.423 0-6.198-2.43-6.198-5.426 0-2.997 2.775-5.426 6.198-5.426 3.424 0 6.199 2.43 6.199 5.426zm7.342 5.426c3.424 0 6.199-2.43 6.199-5.426 0-2.997-2.775-5.426-6.199-5.426-3.423 0-6.198 2.43-6.198 5.426 0 2.997 2.775 5.426 6.198 5.426zm19.74-5.426c0 2.997-2.776 5.426-6.199 5.426s-6.199-2.43-6.199-5.426c0-2.997 2.776-5.426 6.199-5.426s6.199 2.43 6.199 5.426zm7.342 5.426c3.423 0 6.198-2.43 6.198-5.426 0-2.997-2.775-5.426-6.198-5.426-3.424 0-6.199 2.43-6.199 5.426 0 2.997 2.775 5.426 6.199 5.426zm19.739-5.426c0 2.997-2.775 5.426-6.198 5.426-3.424 0-6.199-2.43-6.199-5.426 0-2.997 2.775-5.426 6.199-5.426 3.423 0 6.198 2.43 6.198 5.426zm7.342 5.426c3.424 0 6.199-2.43 6.199-5.426 0-2.997-2.775-5.426-6.199-5.426-3.423 0-6.198 2.43-6.198 5.426 0 2.997 2.775 5.426 6.198 5.426zm18.01-5.426c0 2.16-2.001 3.912-4.469 3.912-2.468 0-4.468-1.752-4.468-3.912s2-3.911 4.468-3.911 4.469 1.751 4.469 3.911zm-12.573 7.799c1.098 1.132 1.699 2.569 1.695 4.054.001 1.573-.677 3.089-1.9 4.243-1.222 1.154-2.897 1.861-4.69 1.979 1.662.116 3.209.79 4.316 1.882 1.107 1.092 1.688 2.516 1.622 3.974-.066 1.459-.775 2.838-1.977 3.85-1.202 1.011-2.805 1.576-4.473 1.576-1.667 0-3.27-.565-4.472-1.576-1.202-1.012-1.911-2.391-1.977-3.85-.066-1.458.515-2.882 1.622-3.974 1.107-1.092 2.654-1.766 4.316-1.882-1.408-.088-2.754-.54-3.868-1.298-1.114-.759-1.946-1.79-2.391-2.962-.444 1.172-1.276 2.203-2.391 2.962-1.114.758-2.46 1.21-3.868 1.298 1.662.116 3.209.79 4.316 1.882 1.107 1.092 1.688 2.516 1.622 3.974-.066 1.459-.774 2.838-1.977 3.85-1.202 1.011-2.805 1.576-4.472 1.576-1.668 0-3.271-.565-4.473-1.576-1.202-1.012-1.911-2.391-1.977-3.85-.066-1.458.515-2.882 1.622-3.974 1.107-1.092 2.654-1.766 4.316-1.882-1.408-.088-2.754-.54-3.868-1.298-1.114-.759-1.946-1.79-2.391-2.962-.444 1.172-1.276 2.203-2.39 2.962-1.115.758-2.461 1.21-3.869 1.298 1.663.116 3.209.79 4.316 1.882 1.107 1.092 1.688 2.516 1.622 3.974-.066 1.459-.774 2.838-1.977 3.85-1.202 1.011-2.805 1.576-4.472 1.576-1.668 0-3.27-.565-4.473-1.576-1.202-1.012-1.91-2.391-1.976-3.85-.067-1.458.515-2.882 1.622-3.974 1.107-1.092 2.653-1.766 4.315-1.882-1.407-.088-2.754-.54-3.868-1.298-1.114-.759-1.946-1.79-2.39-2.962-.445 1.172-1.277 2.203-2.391 2.962-1.114.758-2.461 1.21-3.868 1.298 1.662.116 3.209.79 4.315 1.882 1.107 1.092 1.689 2.516 1.623 3.974-.067 1.459-.775 2.838-1.977 3.85-1.203 1.011-2.805 1.576-4.473 1.576-1.667 0-3.27-.565-4.472-1.576-1.203-1.012-1.911-2.391-1.977-3.85-.066-1.458.515-2.882 1.622-3.974 1.107-1.092 2.653-1.766 4.316-1.882-1.408-.088-2.754-.54-3.869-1.298-1.114-.759-1.946-1.79-2.39-2.962-.445 1.172-1.277 2.203-2.391 2.962-1.114.758-2.46 1.21-3.868 1.298 1.662.116 3.209.79 4.316 1.882 1.107 1.092 1.688 2.516 1.622 3.974-.066 1.459-.775 2.838-1.977 3.85-1.202 1.011-2.805 1.576-4.473 1.576-1.667 0-3.27-.565-4.472-1.576-1.202-1.012-1.911-2.391-1.977-3.85-.066-1.458.515-2.882 1.622-3.974 1.107-1.092 2.654-1.766 4.316-1.882-1.408-.088-2.754-.54-3.868-1.298-1.114-.759-1.947-1.79-2.391-2.962-.445 1.172-1.277 2.203-2.391 2.962-1.114.758-2.46 1.21-3.868 1.298 1.662.116 3.209.79 4.316 1.882 1.107 1.092 1.688 2.516 1.622 3.974-.066 1.459-.775 2.838-1.977 3.85-1.202 1.011-2.805 1.576-4.472 1.576-1.668 0-3.271-.565-4.473-1.576-1.202-1.012-1.911-2.391-1.977-3.85-.066-1.458.515-2.882 1.622-3.974 1.107-1.092 2.654-1.766 4.316-1.882-1.408-.088-2.754-.54-3.868-1.298-1.114-.759-1.946-1.79-2.391-2.962-.444 1.172-1.276 2.203-2.391 2.962-1.114.758-2.46 1.21-3.868 1.298 1.663.116 3.209.79 4.316 1.882 1.107 1.092 1.688 2.516 1.622 3.974-.066 1.459-.774 2.838-1.977 3.85-1.202 1.011-2.805 1.576-4.472 1.576-1.668 0-3.27-.565-4.473-1.576-1.202-1.012-1.91-2.391-1.977-3.85-.066-1.458.516-2.882 1.623-3.974 1.106-1.092 2.653-1.766 4.315-1.882-1.408-.088-2.754-.54-3.868-1.298-1.114-.759-1.946-1.79-2.391-2.962-.444 1.172-1.276 2.203-2.39 2.962-1.114.758-2.461 1.21-3.868 1.298 1.662.116 3.208.79 4.315 1.882 1.107 1.092 1.689 2.516 1.622 3.974-.066 1.459-.774 2.838-1.976 3.85-1.203 1.011-2.805 1.576-4.473 1.576-1.667 0-3.27-.565-4.473-1.576-1.202-1.012-1.91-2.391-1.976-3.85-.066-1.458.515-2.882 1.622-3.974 1.107-1.092 2.653-1.766 4.315-1.882-1.407-.088-2.753-.54-3.868-1.298-1.114-.759-1.946-1.79-2.39-2.962-.445 1.172-1.277 2.203-2.391 2.962-1.114.758-2.46 1.21-3.868 1.298 1.662.116 3.209.79 4.316 1.882 1.106 1.092 1.688 2.516 1.622 3.974-.067 1.459-.775 2.838-1.977 3.85-1.202 1.011-2.805 1.576-4.473 1.576-1.667 0-3.27-.565-4.472-1.576-1.203-1.012-1.911-2.391-1.977-3.85-.066-1.458.515-2.882 1.622-3.974 1.107-1.092 2.653-1.766 4.316-1.882-1.408-.088-2.754-.54-3.868-1.298-1.115-.759-1.947-1.79-2.391-2.962-.445 1.172-1.277 2.203-2.391 2.962-1.114.758-2.46 1.21-3.868 1.298 1.662.116 3.209.79 4.316 1.882 1.107 1.092 1.688 2.516 1.622 3.974-.066 1.459-.775 2.838-1.977 3.85-1.202 1.011-2.805 1.576-4.473 1.576-1.667 0-3.27-.565-4.472-1.576-1.202-1.012-1.911-2.391-1.977-3.85-.066-1.458.515-2.882 1.622-3.974 1.107-1.092 2.654-1.766 4.316-1.882-1.408-.088-2.754-.54-3.868-1.298-1.114-.759-1.946-1.79-2.391-2.962-.444 1.172-1.276 2.203-2.391 2.962-1.114.758-2.46 1.21-3.868 1.298 1.663.116 3.209.79 4.316 1.882 1.107 1.092 1.688 2.516 1.622 3.974-.066 1.459-.774 2.838-1.977 3.85-1.202 1.011-2.805 1.576-4.472 1.576-1.668 0-3.271-.565-4.473-1.576-1.202-1.012-1.911-2.391-1.977-3.85-.066-1.458.515-2.882 1.622-3.974 1.107-1.092 2.654-1.766 4.316-1.882-1.408-.088-2.754-.54-3.868-1.298-1.114-.759-1.946-1.79-2.391-2.962-.444 1.172-1.276 2.203-2.39 2.962-1.115.758-2.461 1.21-3.869 1.298 1.663.116 3.209.79 4.316 1.882 1.107 1.092 1.688 2.516 1.622 3.974-.066 1.459-.774 2.838-1.977 3.85-1.202 1.011-2.805 1.576-4.472 1.576-1.668 0-3.27-.565-4.473-1.576-1.202-1.012-1.91-2.391-1.976-3.85-.067-1.458.515-2.882 1.622-3.974 1.107-1.092 2.653-1.766 4.315-1.882-1.407-.088-2.754-.54-3.868-1.298-1.114-.759-1.946-1.79-2.39-2.962-.445 1.172-1.277 2.203-2.391 2.962-1.114.758-2.461 1.21-3.868 1.298 1.662.116 3.209.79 4.315 1.882 1.107 1.092 1.689 2.516 1.622 3.974-.066 1.459-.774 2.838-1.976 3.85-1.203 1.011-2.805 1.576-4.473 1.576-1.667 0-3.27-.565-4.472-1.576-1.203-1.012-1.911-2.391-1.977-3.85-.066-1.458.515-2.882 1.622-3.974 1.107-1.092 2.653-1.766 4.316-1.882-1.408-.088-2.754-.54-3.869-1.298-1.114-.759-1.946-1.79-2.39-2.962-.445 1.172-1.277 2.203-2.391 2.962-1.114.758-2.46 1.21-3.868 1.298 1.662.116 3.209.79 4.316 1.882 1.107 1.092 1.688 2.516 1.622 3.974-.066 1.459-.775 2.838-1.977 3.85-1.202 1.011-2.805 1.576-4.473 1.576-1.667 0-3.27-.565-4.472-1.576-1.202-1.012-1.911-2.391-1.977-3.85-.066-1.458.515-2.882 1.622-3.974 1.107-1.092 2.654-1.766 4.316-1.882-1.408-.088-2.754-.54-3.868-1.298-1.114-.759-1.947-1.79-2.391-2.962-.445 1.172-1.277 2.203-2.391 2.962-1.114.758-2.46 1.21-3.868 1.298 1.662.116 3.209.79 4.316 1.882 1.107 1.092 1.688 2.516 1.622 3.974-.066 1.459-.775 2.838-1.977 3.85-1.202 1.011-2.805 1.576-4.472 1.576-1.668 0-3.27-.565-4.473-1.576-1.202-1.012-1.91-2.391-1.977-3.85-.066-1.458.515-2.882 1.622-3.974 1.107-1.092 2.654-1.766 4.316-1.882-1.408-.088-2.754-.54-3.868-1.298-1.114-.759-1.946-1.79-2.39-2.962-.445 1.172-1.277 2.203-2.391 2.962-1.115.758-2.46 1.21-3.869 1.298 1.663.116 3.21.79 4.316 1.882 1.107 1.092 1.688 2.516 1.622 3.974-.066 1.459-.774 2.838-1.977 3.85C89.54 123.435 87.937 124 86.27 124c-1.668 0-3.27-.565-4.473-1.576-1.202-1.012-1.91-2.391-1.977-3.85-.066-1.458.516-2.882 1.623-3.974 1.106-1.092 2.653-1.766 4.315-1.882-1.407-.088-2.754-.54-3.868-1.298-1.114-.759-1.946-1.79-2.39-2.962-.445 1.172-1.277 2.203-2.391 2.962-1.114.758-2.46 1.21-3.868 1.298 1.662.116 3.208.79 4.315 1.882 1.107 1.092 1.689 2.516 1.622 3.974-.066 1.459-.774 2.838-1.976 3.85-1.203 1.011-2.805 1.576-4.473 1.576-1.668 0-3.27-.565-4.472-1.576-1.203-1.012-1.911-2.391-1.977-3.85-.067-1.458.515-2.882 1.622-3.974 1.107-1.092 2.653-1.766 4.316-1.882-1.408-.088-2.755-.54-3.869-1.298-1.114-.759-1.946-1.79-2.39-2.962-.445 1.172-1.277 2.203-2.391 2.962-1.114.758-2.46 1.21-3.868 1.298 1.662.116 3.209.79 4.316 1.882 1.106 1.092 1.688 2.516 1.622 3.974-.067 1.459-.775 2.838-1.977 3.85-1.203 1.011-2.805 1.576-4.473 1.576-1.667 0-3.27-.565-4.472-1.576-1.203-1.012-1.911-2.391-1.977-3.85-.066-1.458.515-2.882 1.622-3.974 1.107-1.092 2.653-1.766 4.316-1.882-1.408-.088-2.754-.54-3.868-1.298-1.115-.759-1.947-1.79-2.391-2.962-.445 1.172-1.277 2.203-2.39 2.962-1.115.758-2.461 1.21-3.869 1.298 1.662.116 3.209.79 4.316 1.882 1.107 1.092 1.688 2.516 1.622 3.974-.066 1.459-.775 2.838-1.977 3.85-1.202 1.011-2.805 1.576-4.472 1.576-1.668 0-3.27-.565-4.473-1.576-1.202-1.012-1.91-2.391-1.977-3.85-.066-1.458.515-2.882 1.622-3.974 1.107-1.092 2.654-1.766 4.316-1.882-1.408-.088-2.754-.54-3.868-1.298-1.114-.759-1.946-1.79-2.39-2.962-.446 1.172-1.278 2.203-2.392 2.962-1.114.758-2.46 1.21-3.868 1.298 1.663.116 3.21.79 4.316 1.882 1.107 1.092 1.688 2.516 1.622 3.974-.066 1.459-.774 2.838-1.977 3.85-1.202 1.011-2.805 1.576-4.472 1.576-1.668 0-3.27-.565-4.473-1.576-1.202-1.012-1.91-2.391-1.977-3.85-.066-1.458.515-2.882 1.622-3.974 1.107-1.092 2.654-1.766 4.316-1.882-1.408-.088-2.754-.54-3.868-1.298-1.114-.759-1.946-1.79-2.39-2.962-.445 1.172-1.277 2.203-2.391 2.962-1.115.758-2.46 1.21-3.869 1.298 1.663.116 3.21.79 4.316 1.882 1.107 1.092 1.688 2.516 1.622 3.974-.066 1.459-.774 2.838-1.977 3.85-1.202 1.011-2.805 1.576-4.472 1.576-1.668 0-3.27-.565-4.473-1.576-1.202-1.012-1.91-2.391-1.976-3.85-.067-1.458.515-2.882 1.622-3.974 1.106-1.092 2.653-1.766 4.315-1.882a7.804 7.804 0 01-3.591-1.106c-1.06-.646-1.9-1.533-2.43-2.565a5.552 5.552 0 01-.575-3.295c.152-1.123.651-2.189 1.442-3.084.792-.894 1.846-1.584 3.05-1.994a8.07 8.07 0 013.788-.337 7.608 7.608 0 013.446 1.416c.98.737 1.714 1.694 2.122 2.767.471-1.246 1.379-2.33 2.595-3.099 1.215-.768 2.676-1.182 4.176-1.182 1.499 0 2.96.414 4.176 1.182 1.215.769 2.123 1.853 2.594 3.099.471-1.246 1.379-2.33 2.594-3.099 1.216-.768 2.677-1.182 4.176-1.182 1.5 0 2.961.414 4.177 1.182 1.215.769 2.123 1.853 2.594 3.099.47-1.246 1.379-2.33 2.594-3.099 1.215-.768 2.677-1.182 4.176-1.182 1.5 0 2.96.414 4.176 1.182 1.216.769 2.123 1.853 2.594 3.099.472-1.246 1.38-2.33 2.595-3.099 1.215-.768 2.677-1.182 4.176-1.182 1.5 0 2.96.414 4.176 1.182 1.216.769 2.123 1.853 2.594 3.099.471-1.246 1.38-2.33 2.595-3.099 1.215-.768 2.676-1.182 4.176-1.182s2.96.414 4.176 1.182c1.215.769 2.123 1.853 2.594 3.099.471-1.246 1.379-2.33 2.594-3.099 1.216-.768 2.677-1.182 4.177-1.182 1.499 0 2.96.414 4.176 1.182 1.215.769 2.123 1.853 2.594 3.099.471-1.246 1.379-2.33 2.594-3.099 1.216-.768 2.677-1.182 4.176-1.182 1.5 0 2.961.414 4.176 1.182 1.216.769 2.124 1.853 2.595 3.099.471-1.246 1.378-2.33 2.594-3.099 1.215-.768 2.677-1.182 4.176-1.182s2.961.414 4.176 1.182c1.216.769 2.123 1.853 2.594 3.099.472-1.246 1.379-2.33 2.595-3.099 1.215-.768 2.676-1.182 4.176-1.182 1.499 0 2.961.414 4.176 1.182 1.215.769 2.123 1.853 2.594 3.099.471-1.246 1.379-2.33 2.594-3.099 1.216-.768 2.677-1.182 4.177-1.182 1.499 0 2.96.414 4.176 1.182 1.215.769 2.123 1.853 2.594 3.099.471-1.246 1.379-2.33 2.594-3.099 1.216-.768 2.677-1.182 4.176-1.182 1.5 0 2.961.414 4.177 1.182 1.215.769 2.123 1.853 2.594 3.099.471-1.246 1.379-2.33 2.594-3.099 1.215-.768 2.677-1.182 4.176-1.182 1.5 0 2.961.414 4.176 1.182 1.216.769 2.123 1.853 2.595 3.099.471-1.246 1.378-2.33 2.594-3.099 1.215-.768 2.677-1.182 4.176-1.182s2.961.414 4.176 1.182c1.216.769 2.123 1.853 2.594 3.099.471-1.246 1.379-2.33 2.595-3.099 1.215-.768 2.676-1.182 4.176-1.182 1.499 0 2.96.414 4.176 1.182 1.215.769 2.123 1.853 2.594 3.099.471-1.246 1.379-2.33 2.594-3.099 1.216-.768 2.677-1.182 4.177-1.182 1.499 0 2.96.414 4.176 1.182 1.215.769 2.123 1.853 2.594 3.099.471-1.246 1.379-2.33 2.594-3.099 1.216-.768 2.677-1.182 4.176-1.182 1.5 0 2.961.414 4.176 1.182 1.216.769 2.124 1.853 2.595 3.099.471-1.246 1.379-2.33 2.594-3.099 1.215-.768 2.677-1.182 4.176-1.182s2.961.414 4.176 1.182c1.216.769 2.123 1.853 2.594 3.099.472-1.246 1.379-2.33 2.595-3.099 1.215-.768 2.676-1.182 4.176-1.182 1.499 0 2.961.414 4.176 1.182 1.215.769 2.123 1.853 2.594 3.099.471-1.246 1.379-2.33 2.594-3.099 1.216-.768 2.677-1.182 4.177-1.182 1.499 0 2.96.414 4.176 1.182 1.215.769 2.123 1.853 2.594 3.099.533-1.409 1.622-2.607 3.072-3.376 1.451-.77 3.167-1.062 4.841-.825 1.674.238 3.197.991 4.294 2.123zM9.99 106.496c0 2.414-2.236 4.372-4.995 4.372S0 108.91 0 106.496c0-2.415 2.236-4.373 4.995-4.373s4.995 1.958 4.995 4.373zm292.902 4.471c2.821 0 5.108-2.002 5.108-4.471 0-2.47-2.287-4.471-5.108-4.471-2.821 0-5.108 2.001-5.108 4.471 0 2.469 2.287 4.471 5.108 4.471zm-293.39 7.381c0 2.179-2.018 3.945-4.507 3.945s-4.506-1.766-4.506-3.945c0-2.178 2.017-3.944 4.506-3.944 2.489 0 4.506 1.766 4.506 3.944zm293.39 4.044c2.551 0 4.619-1.811 4.619-4.043 0-2.233-2.068-4.044-4.619-4.044-2.551 0-4.619 1.811-4.619 4.044 0 2.232 2.068 4.043 4.619 4.043z"
    fill="#E80352"
  />
  <ellipse cx="70.5" cy="58" rx="65.5" ry="58" fill="#E80352" opacity=".2" />
  <ellipse cx="239" cy="58" rx="66" ry="58" fill="#E80352" opacity=".2" />
  <ellipse cx="154.5" cy="58" rx="65.5" ry="58" fill="#E80352" opacity=".2" />
</svg>
